<mxfile host="app.diagrams.net" modified="2024-07-11T21:35:41.957Z" agent="Mozilla/5.0 (Windows NT 10.0; Win64; x64) AppleWebKit/537.36 (KHTML, like Gecko) Chrome/126.0.0.0 Safari/537.36" version="24.5.4" etag="eVOXYFCzzoRMaZqxmoC8" type="github">
  <diagram name="ページ1" id="YOO09NiVLDT_v0YdnFnA">
    <mxGraphModel>
      <root>
        <mxCell id="0" />
        <mxCell id="1" parent="0" />
      </root>
    </mxGraphModel>
  </diagram>
</mxfile>
